<?xml version="1.0" encoding="UTF-8"?>
<svg version="1.1" viewBox="0 0 1000 1000" xmlns="http://www.w3.org/2000/svg">
<rect width="1e3" height="1e3"/>
<g transform="matrix(.7 0 0 .7 150 106.25)">
<svg width="1e3" height="1125" data-background-color="#ffffff" viewBox="0 0 320 360" xmlns="http://www.w3.org/2000/svg" xmlns:xlink="http://www.w3.org/1999/xlink">
<g>
<svg width="320" height="360" viewBox="0 0 320 360">
<svg/>
<svg width="320" height="360" viewBox="0 0 320 360">
<path d="m20.961 227.22 3.726 4.658-1.863-6.056c-0.466-2.795-3.726 0.466-1.863 1.398m4.192-2.795c1.397 2.329 2.795 4.658 2.795 6.987 0 3.261 2.795 4.658 5.123 5.589-3.261-3.726-5.124-13.974-7.918-12.576m178.86-197.5c7.918 0 15.371-0.932 23.756 0.931 20.495 5.124 37.729 15.371 49.374 29.811l32.606 52.169c1.397 13.042 4.192 27.482 3.726 43.319 3.261 0 2.795-4.658 6.521-5.59-3.726 9.316-5.59 20.961-6.521 34.469-2.329-7.453 0-18.632 0.466-24.687-3.261 5.124-5.124 1.397-5.124-0.932 0.466-3.726-1.397-3.261-2.795-4.658-5.124-4.658-8.384-9.782-12.11-17.7 2.329-6.055 2.795-14.905-4.658-19.563-2.329-1.397-5.124-3.726-6.521-7.453-1.863-5.124-5.124-11.179-4.193-19.097 0.466-2.329-6.987 5.124-11.179 1.863-18.166-12.576-36.332-27.016-58.224-39.127-11.645 0-20.029-4.192-24.221-9.316-3.726-4.658-0.932-10.713 4.658-11.179 3.261 0 6.987-0.932 9.782 0.932 0.466-1.863 2.329-4.192 4.657-4.192m-46.113-10.714 0.932 0.466c4.658 0.932 6.987 7.453 12.11 5.124 0 3.261 0.466 6.521-0.466 8.85-1.397 3.726-5.59 3.726-8.85 3.726-31.208-1.863-49.374 11.179-68.471 22.358-5.124 3.261-10.713 5.59-14.906 9.782-20.029 18.632-41.921 35.866-47.045 70.335l-4.192 38.195c-0.466 4.192-5.124 8.384-4.192 13.508l3.26 22.824c-3.261-3.261-5.124 0.932-4.192 2.795 0.466 1.397 2.329 6.055 5.124 1.863 3.726 6.987 7.453 20.495 12.576 26.55 15.837 18.632 36.332 35.4 53.101 52.169 4.192-0.932 7.453-0.932 8.384-3.727 1.397 2.795-1.397 5.59-3.726 6.056 7.453 4.658 15.837 8.85 27.016 9.781 14.44 0.932 27.948 3.261 40.524 6.522 6.521-1.863 13.042-2.795 20.029-3.261 2.329 0 3.726-3.726 6.521-4.658l0.466-4.658c2.795 4.192 2.329-1.397 0.466-4.192 3.261 2.795 4.192 5.124 5.589 6.987 0-1.397 3.726-6.521 3.727-0.466l0.931-6.055c1.397-0.932 1.863 5.124 3.261 0.931 1.397-4.192 4.192-0.932 6.987-2.329-0.932 1.863-0.466 5.59 2.794 3.261l3.727-3.261c2.329 5.59 6.055 3.261 7.918 2.329 20.495-13.042 40.99-28.413 60.553-43.784l-0.466 6.055 2.329-7.453c2.329 2.329 4.192 0.466 5.124-0.931 2.795-4.658 6.521-9.316 12.577-13.508-7.453 20.029-16.303 35.866-27.482 48.908l-4.658 5.59c0 3.261-0.932 7.453-4.658 7.918-1.863 0.466-5.59-0.932-8.384 1.863-1.397 1.863 3.261 5.59-0.466 2.795-3.261-2.329-6.521 0-10.248 0.932-2.795 0.932 1.863 3.726 2.795 5.589s1.863 3.726 1.398 6.056l-5.124-5.59c-6.055 3.261-9.782 9.316-14.906 13.974-2.329 1.863-1.397 5.124-1.397 7.918-3.261 0-6.987-0.932-8.85 0.932-1.397 1.863-0.932 4.658-0.932 7.453-4.658-0.466-5.124-7.453-9.315-6.056-4.192 0.932-8.85 1.397-12.577 3.727 2.795 5.59-4.658 2.329-3.726 3.26-6.987-4.192-13.042-7.453-20.495-4.658-15.837-5.124-35.4-2.795-49.84-0.931 0-2.329 0.466-4.658-0.466-5.124-0.932 2.329-3.726 1.397-3.26 1.397-8.85-6.055-17.7-9.782-27.016-14.905-8.384 0.932-16.303-3.261-18.632-5.59-6.521-6.055-13.974-2.795-20.029-4.192-13.042-3.261-17.7-16.769-19.098-26.084-0.932-4.658-4.658-6.521-6.055-6.056-6.055-19.563-15.371-37.263-22.824-55.429-1.863-4.658-1.397-9.316-1.397-14.44 2.329 0.932 4.658 0.466 4.192-2.794-2.329-15.371-7.918-27.016-13.974-38.195 3.261-15.837 3.726-34.469 11.179-48.443 6.521-12.576 18.632-19.098 27.016-29.811 2.795-3.726 2.795-8.85 5.59-12.11 9.316-9.316 18.632-19.098 28.879-27.482 4.658-3.726 10.247 0 17.234-1.397 2.329-8.384 11.645-15.837 20.495-13.508 3.726 0.932 11.179-8.85 13.508-9.782 3.726-1.397 1.863 3.726 1.863 6.987 8.85-6.987 20.961-10.713 32.14-14.906" fill="#fff" font-family="none" font-size="none" font-weight="none" stroke-dasharray="" stroke-miterlimit="10" text-anchor="none" style="mix-blend-mode:normal" data-fill-palette-color="tertiary" xmlns="http://www.w3.org/2000/svg"/>
<g transform="translate(102.48 90)">
<svg width="115.03" height="180" viewBox="0 0 115.03210892179722 180">
<svg width="115.03" height="180" viewBox="0 0 115.03210892179722 180">
<svg width="115.03" height="180" viewBox="0 0 178.2725527831094 278.9574128626551">
<g transform="translate(0 98.957)">
<svg width="178.27" height="180" viewBox="0 0 178.2725527831094 180">
<svg width="178.27" height="180" viewBox="0 0 178.2725527831094 180">
<svg width="178.27" height="180" viewBox="0 0 178.2725527831094 180">
<g>
<svg width="178.27" height="180" data-palette-color="#93a0c9" viewBox="5.420000076293945 -38.15999984741211 37.790000915527344 38.15999984741211">
<path class="undefined-text-0" d="m5.42 0v-38.16h7.74v19.75l20.14-19.75h9.91l-18.8 18.21 18.8 19.95h-10.3l-14.06-14.55-5.69 5.49v9.06h-7.74z" fill="#fff" data-fill-palette-color="primary"/>
</svg>
</g>
</svg>
</svg>
</svg>
</g>
<g transform="translate(34.05)">
<svg width="110.17" height="72.691" viewBox="0 0 110.17243761996161 72.69109286265508">
<svg class="icon-icon-0" width="110.17" height="72.691" enable-background="new 0 0 100 100" data-fill-palette-color="accent" version="1.1" viewBox="2 18 97 64" xml:space="preserve" xmlns="http://www.w3.org/2000/svg" xmlns:xlink="http://www.w3.org/1999/xlink"><g fill="#fff" data-fill-palette-color="accent"><path d="M2 18v64h97V18H2zM6 26h65v52H6V26zM95 78H75V26h20V78z" data-fill-palette-color="accent"/><rect x="77" y="28" width="4" height="4" data-fill-palette-color="accent"/><rect x="83" y="28" width="6" height="4" data-fill-palette-color="accent"/><rect x="83" y="34" width="10" height="4" data-fill-palette-color="accent"/><rect x="77" y="34" width="4" height="4" data-fill-palette-color="accent"/><path d="M10 49.805L15.845 30h2.759l-5.846 19.805H10z" data-fill-palette-color="accent"/><path d="M28.765 31.366l-2.95 3.469 0.027 0.082 4.343-0.874v2.759l-4.371-0.765-0.027 0.082 2.977 3.36-2.43 1.42-1.557-4.234-0.055 0.028-1.584 4.206-2.349-1.42 2.923-3.414V36.01l-4.29 0.792v-2.759l4.234 0.847 0.027-0.055-2.896-3.441L23.22 30l1.53 4.179h0.056L26.362 30 28.765 31.366z" data-fill-palette-color="accent"/></g></svg>
</svg>
</g>
</svg>
</svg>
</svg>
</g>
</svg>
</svg>
<rect width="320" height="360" fill="none" visibility="hidden"/>
</g>
</svg>
</g>
</svg>
